<?xml version="1.0" encoding="UTF-8"?>
<svg width="120px" height="90px" viewBox="0 0 120 90" version="1.1" xmlns="http://www.w3.org/2000/svg" xmlns:xlink="http://www.w3.org/1999/xlink">
    <title>画板</title>
    <g id="画板" stroke="none" stroke-width="1" fill="none" fill-rule="evenodd">
        <g id="flux" transform="translate(8.000000, 24.000000)" fill="#44B74A" fill-rule="nonzero">
            <path d="M84.0952379,0 C80.1285928,-0.00431701616 76.2433919,1.13069442 72.8976059,3.27125635 L52.4993848,18.3216983 L41.7475908,10.3897866 C41.0995465,11.446276 40.4474006,12.4961727 39.8231452,13.5831536 C39.6726185,13.8448037 39.5331659,14.1097502 39.3851001,14.3709882 L48.3719985,21.0008303 L29.5139081,34.9123733 C26.9309591,36.5310362 23.9474075,37.3883718 20.9031215,37.3867177 C11.9100707,37.3867177 4.59250159,30.0362048 4.59250159,21.0008303 C4.59250159,11.9650437 11.9088402,4.6149428 20.9031215,4.6149428 C23.9474692,4.61243441 26.9312145,5.4696829 29.5139081,7.08887516 L31.3883149,8.47088202 C32.163097,7.12595943 32.9657697,5.81235243 33.7762352,4.50822253 L32.1007535,3.27208044 C28.7551844,1.13113266 24.8697888,-0.00364968705 20.9031215,0.00166052863 C9.35931891,0.00124848127 0,9.40375725 0,21.0008303 C0,32.5979033 9.35808844,42 20.9031215,42 C25.0243554,42 28.863813,40.7968217 32.1007535,38.729168 L52.4997949,23.6795502 L63.2930145,31.6423654 C63.9541838,30.5541484 64.6137124,29.4622229 65.2662685,28.3245601 C65.3954672,28.0991702 65.5123613,27.8754285 65.6399194,27.6496265 L56.6280015,21.0008303 L75.4848614,7.08887516 C78.0679255,5.47052041 81.0514266,4.61334205 84.0956481,4.6149428 C93.0899293,4.6149428 100.406268,11.9650437 100.406268,21.0008303 C100.406268,30.0362048 93.0899293,37.3867177 84.0956481,37.3867177 C81.0512819,37.3889474 78.0675754,36.5315673 75.4848614,34.9123733 L73.6375249,33.5497327 C72.8655742,34.8855207 72.0752673,36.2105171 71.266831,37.5243415 L72.8992465,38.7275198 C76.2447507,40.8687549 80.1301117,42.003956 84.0968785,41.9991759 C95.6406811,41.9991759 105,32.5962551 105,20.9995941 C104.998359,9.4025211 95.6402709,0 84.0952379,0 Z" id="路径"></path>
        </g>
    </g>
</svg>