<?xml version="1.0" standalone="no"?><!DOCTYPE svg PUBLIC "-//W3C//DTD SVG 1.1//EN" "http://www.w3.org/Graphics/SVG/1.1/DTD/svg11.dtd"><svg t="1741107329034" class="icon" viewBox="0 0 4451 1024" version="1.1" xmlns="http://www.w3.org/2000/svg" p-id="109370" xmlns:xlink="http://www.w3.org/1999/xlink" width="869.3359375" height="200"><path d="M735.631014 900.936779c33.794036 41.937177 89.065606 61.277137 137.00835 61.277138 66.875547 0 114.105765-44.176541 114.105765-97.615905l0.101789-692.777734c0-53.744732-43.972962-97.717694-97.717693-97.717694h-5.496621c-53.744732 0-97.717694 43.972962-97.717693 97.717694v502.533599L335.599205 135.379722c-33.794036-41.937177-89.065606-61.277137-137.00835-61.277138-66.875547 0-114.105765 44.176541-114.105766 97.615905l-0.101789 692.777734c0 53.744732 43.972962 97.717694 97.717694 97.717694h5.49662c53.744732 0 97.717694-43.972962 97.717694-97.717694V361.962624l450.315706 538.974155zM4337.851292 791.615109L4064.343539 518.107356l273.507753-273.507754c37.967396-37.967396 37.967396-100.160636 0-138.229821l-3.969781-3.969781c-37.967396-37.967396-100.160636-37.967396-138.128032 0l-239.306561 239.306561-16.693439 16.693439-10.280716 10.280716a10.138211 10.138211 0 0 1-14.352286 0l-12.520079-12.52008-14.454076-14.454075-239.306561-239.306561c-37.967396-37.967396-100.160636-37.967396-138.229821 0l-3.969781 3.969781c-37.967396 37.967396-37.967396 100.160636 0 138.128032l273.507754 273.507754-273.507754 273.609542c-37.967396 37.967396-37.967396 100.160636 0 138.229821l3.969781 3.969782c37.967396 37.967396 100.160636 37.967396 138.128032 0l239.306561-239.306561 16.489861-16.489861 10.484294-10.484294a10.138211 10.138211 0 0 1 14.352286 0l6.616302 6.616302 20.357853 20.357853 239.306561 239.306561c37.967396 37.967396 100.160636 37.967396 138.229821 0l3.969781-3.969782c38.069185-38.069185 38.069185-100.160636 0-138.229821zM2729.173757 900.936779c-33.794036 41.937177-89.065606 61.277137-137.008349 61.277138-66.875547 0-114.105765-44.176541-114.105766-97.615905l-0.101789-692.777734c0-53.744732 43.972962-97.717694 97.717694-97.717694h5.49662c53.744732 0 97.717694 43.972962 97.717694 97.717694v502.533599l450.315706-538.872366c33.794036-41.937177 89.065606-61.277137 137.00835-61.277137 66.875547 0 114.105765 44.176541 114.105765 97.615904l0.101789 692.777734c0 53.744732-43.972962 97.717694-97.717694 97.717694h-5.49662c-53.744732 0-97.717694-43.972962-97.717694-97.717694V362.064414l-450.315706 538.872365zM2343.799602 167.952286c0-51.708946-39.799602-93.951491-88.353081-93.951491s-88.353082 42.242545-88.353082 93.951491v227.906163c0 5.59841 4.580517 10.178926 10.178927 10.178927h156.246521c5.59841 0 10.178926-4.580517 10.178926-10.178927l0.101789-227.906163zM2343.697813 497.953082c0-5.59841-4.580517-10.178926-10.178926-10.178927H2177.272366c-5.59841 0-10.178926 4.580517-10.178927 10.178927v373.159443c0 50.080318 39.697813 91.101392 88.353082 91.101392s88.353082-41.021074 88.353081-91.101392l-0.101789-373.159443zM2087.290656 487.774155h-556.990855c-51.403579 0-93.544334 35.015507-93.544334 84.077932s42.038966 83.874354 93.544334 83.874354h280.327634l-75.018687 127.643738c-5.089463 8.550298-10.891451 11.603976-20.76501 11.603976H1441.335984c-11.298608 0.101789-16.286282-3.257256-21.477535-12.723658l-139.75666-255.491054c-4.478728-8.041352-4.784095-14.352286-0.203578-22.597216l140.062028-248.976541c4.987674-9.262823 10.891451-12.825447 21.477534-12.723658h274.0167c10.891451 0 17.507753 3.359046 23.207952 12.723658l83.976144 141.588867c3.867992 6.310934 7.735984 9.466402 15.980914 9.364612h194.010338L1844.828628 91.101392c-4.784095-7.939563-10.484294-9.66998-19.034592-9.66998h-502.024652c-11.09503 0-16.897018 3.562624-22.19006 13.334393l-218.948708 403.899801c-6.209145 11.298608-6.616302 19.645328-0.101789 31.147515l231.06163 415.910935c5.394831 9.771769 11.603976 12.927237 22.495428 12.927236h480.241749c11.502187 0 17.813121-3.257256 23.411531-13.639761l247.551491-457.237376z" fill="#009639" p-id="109371"></path></svg>