<?xml version="1.0" standalone="no"?><!DOCTYPE svg PUBLIC "-//W3C//DTD SVG 1.1//EN" "http://www.w3.org/Graphics/SVG/1.1/DTD/svg11.dtd"><svg t="1741107324182" class="icon" viewBox="0 0 1024 1024" version="1.1" xmlns="http://www.w3.org/2000/svg" p-id="109227" xmlns:xlink="http://www.w3.org/1999/xlink" width="200" height="200"><path d="M503.509333 61.525333a16.981333 16.981333 0 0 1 16.981334 0l379.050666 217.856a17.152 17.152 0 0 1 8.576 14.805334v435.626666a17.066667 17.066667 0 0 1-8.576 14.762667l-379.050666 217.898667a16.981333 16.981333 0 0 1-16.981334 0l-379.050666-217.898667a17.066667 17.066667 0 0 1-8.576-14.762667V294.186667c0-6.101333 3.285333-11.733333 8.576-14.805334l379.050666-217.856zM382.976 434.346667l235.989333 282.666666s27.733333 24.362667 67.285334 21.930667c47.786667-2.986667 52.565333-43.050667 52.565333-43.050667l0.042667-370.944-0.042667-0.341333a53.632 53.632 0 0 0-105.002667-0.213333l-0.128 0.554666 0.213334 260.565334-242.261334-285.354667s-19.370667-21.845333-64.682666-16.896c-44.544 4.906667-49.322667 43.050667-49.322667 43.050667l0.426667 368 0.085333 0.554666a53.077333 53.077333 0 0 0 104.917333-0.554666z" fill="#43A047" p-id="109228"></path></svg>