<?xml version="1.0" standalone="no"?><!DOCTYPE svg PUBLIC "-//W3C//DTD SVG 1.1//EN" "http://www.w3.org/Graphics/SVG/1.1/DTD/svg11.dtd"><svg t="1741106742078" class="icon" viewBox="0 0 1024 1024" version="1.1" xmlns="http://www.w3.org/2000/svg" p-id="70984" xmlns:xlink="http://www.w3.org/1999/xlink" width="200" height="200"><path d="M468.992 13.664c25.6-14.496 58.24-14.56 83.2 0L934.4 229.12c23.904 13.44 39.904 40.096 39.68 67.648v432c0.16 28.704-17.408 55.936-42.624 69.12l-380.16 214.464a83.2 83.2 0 0 1-84.448-2.336l-114.08-65.92c-7.776-4.64-16.512-8.32-22.016-15.84 4.864-6.528 13.504-7.36 20.544-10.24 15.872-5.056 30.4-12.8 44.992-20.992 3.68-2.56 8.192-1.6 11.712 0.704l97.28 56.256c6.944 4 13.984-1.28 19.936-4.64l373.28-210.656a12.352 12.352 0 0 0 6.784-12.16V298.688a13.344 13.344 0 0 0-8-13.344L518.08 71.808a13.12 13.12 0 0 0-14.88-0.032L124.544 285.76a13.216 13.216 0 0 0-8 13.28v427.84a12 12 0 0 0 6.88 12l101.184 57.12c19.008 10.24 42.336 16 63.264 8.48a48 48 0 0 0 31.072-45.088l0.096-425.28c-0.448-6.304 5.504-11.52 11.616-10.88h48.64c6.4-0.16 11.424 6.624 10.56 12.96L389.76 764.16c0.032 38.016-15.584 79.36-50.752 98.016-43.328 22.4-96.896 17.696-139.712-3.84l-108.8-60.16a78.336 78.336 0 0 1-42.624-69.12v-432a78.72 78.72 0 0 1 41.024-68.512L468.992 13.664zM579.2 313.12c55.264-3.2 114.432-2.112 164.16 25.12 38.496 20.864 59.84 64.64 60.544 107.456-1.088 5.76-7.104 8.96-12.608 8.544-16-0.032-32.064 0.224-48.128-0.096-6.816 0.256-10.752-6.016-11.616-12.032-4.608-20.48-15.776-40.736-35.04-50.624-29.568-14.816-63.872-14.08-96.128-13.76-23.552 1.28-48.864 3.296-68.8 17.12-15.36 10.496-19.968 32-14.496 48.704 5.12 12.256 19.296 16.192 30.848 19.84 66.624 17.408 137.184 16 202.56 38.624 27.04 9.344 53.504 27.52 62.784 55.84 12.096 37.952 6.816 83.328-20.16 113.792-21.888 25.088-53.76 38.4-85.6 46.144-42.336 9.44-86.24 9.664-129.216 5.44-40.416-4.608-82.464-15.232-113.664-42.752-26.688-23.168-39.68-59.264-38.4-94.08 0.32-5.888 6.176-9.984 11.84-9.504h48c6.464-0.448 11.2 5.12 11.52 11.2 2.976 19.2 10.304 40 27.328 51.2 32.832 21.184 74.016 19.712 111.584 20.32 31.136-1.376 66.08-1.792 91.52-22.4 13.44-11.744 17.376-31.36 13.76-48.256-3.936-14.272-19.2-20.896-32-25.6-65.76-20.8-137.12-13.248-202.24-36.8-26.432-9.344-52-27.008-62.144-54.176-14.176-38.4-7.68-85.984 22.176-115.424 28.8-29.28 71.04-40.576 111.04-44.608z" fill="#8CC84B" p-id="70985"></path></svg>