<svg width="120" height="90" viewBox="0 0 120 90" fill="none" xmlns="http://www.w3.org/2000/svg">
<path d="M89.4439 38.6474C90.2304 36.2857 90.4927 33.7928 90.2523 31.3217C90.012 28.8506 89.2035 26.4671 87.9583 24.324C86.1011 21.0876 83.2606 18.5291 79.8523 16.9983C76.444 15.4676 72.6421 15.074 68.9935 15.8612C67.3546 14.0024 65.3226 12.5155 63.0505 11.5095C60.7781 10.5036 58.3311 9.97879 55.8402 10.0007C52.1041 10.0007 48.4771 11.1596 45.4401 13.3683C42.425 15.5551 40.1745 18.6603 39.0165 22.2029C36.5913 22.7058 34.2971 23.7117 32.287 25.1769C30.2769 26.642 28.5946 28.5008 27.371 30.6657C25.492 33.9021 24.7054 37.6415 25.0987 41.359C25.492 45.0767 27.0433 48.5754 29.5559 51.3525C28.7693 53.7143 28.5072 56.2073 28.7475 58.6783C29.0097 61.1493 29.7963 63.5328 31.0417 65.6761C32.8988 68.9123 35.7392 71.4708 39.1476 73.0016C42.5561 74.5323 46.3578 74.9259 50.0066 74.1387C51.6452 75.9976 53.6772 77.4844 55.9495 78.4905C58.2218 79.4963 60.6687 80.0213 63.1595 79.9993C66.8959 79.9993 70.5445 78.8402 73.5599 76.6317C76.5749 74.4448 78.8254 71.3397 79.9832 67.7751C82.4086 67.2724 84.7026 66.2663 86.7127 64.8011C88.7229 63.3362 90.3836 61.4773 91.6289 59.3124C93.508 56.0759 94.2945 52.3366 93.9013 48.619C93.508 44.9017 91.9566 41.4026 89.4439 38.6474ZM63.3128 75.407C59.8386 75.407 57.1294 74.3357 54.7915 72.3674C54.9007 72.3019 55.0755 72.2144 55.2066 72.1269L69.1244 64.0798C69.4741 63.8828 69.758 63.5987 69.9548 63.2487C70.1513 62.8987 70.2606 62.5051 70.2606 62.1115V42.4743L76.1378 45.8855C76.1378 45.8855 76.2036 45.9294 76.2252 45.9514C76.2252 45.973 76.2472 46.0169 76.2691 46.0388V62.3084C76.2691 69.6778 70.1293 75.429 63.3128 75.429V75.407ZM35.0182 63.3798C33.4887 60.7338 32.9207 57.6067 33.4669 54.589C33.5761 54.6546 33.7509 54.764 33.882 54.8296L47.7998 62.8767C48.1494 63.0737 48.5427 63.1831 48.936 63.1831C49.3293 63.1831 49.7225 63.0737 50.0721 62.8767L67.0707 53.0583V59.8591C67.0707 59.8591 67.0707 59.9246 67.0707 59.9685C67.0707 59.9905 67.0269 60.0341 67.0049 60.056L52.9343 68.1907C49.9192 69.9184 46.3578 70.3995 42.9931 69.5028C39.6283 68.6062 36.7661 66.3977 35.04 63.4017L35.0182 63.3798ZM31.3476 32.9618C32.877 30.2939 35.3022 28.2602 38.1644 27.2106V43.7864C38.1644 44.18 38.2737 44.5736 38.4703 44.9233C38.6669 45.2733 38.951 45.5578 39.3006 45.7544L56.2991 55.5732L50.4217 58.9844C50.4217 58.9844 50.3562 59.0063 50.3343 59.0283C50.2906 59.0283 50.2687 59.0283 50.2251 59.0283L36.1543 50.8933C33.1392 49.144 30.9543 46.2794 30.0585 42.9334C29.1627 39.5659 29.6215 36.0014 31.3476 32.9837V32.9618ZM79.6993 44.2236L62.7008 34.4051L68.5783 31.0156C68.5783 31.0156 68.6438 30.9937 68.6657 30.9718H68.7747L82.8457 39.1066C85.0087 40.3529 86.7566 42.1901 87.9144 44.3986C89.0726 46.6071 89.5532 49.1001 89.3565 51.5714C89.1381 54.064 88.2206 56.4259 86.7127 58.3938C85.2052 60.3841 83.1735 61.8929 80.8356 62.7456V46.1699C80.8356 45.7764 80.7262 45.3828 80.5297 45.0328C80.3329 44.6828 80.049 44.3986 79.6993 44.2017V44.2236ZM85.5549 35.3891C85.5549 35.3891 85.2707 35.2142 85.1397 35.1486L71.222 27.1012C70.8723 26.9044 70.479 26.7951 70.0858 26.7951C69.6925 26.7951 69.2774 26.9044 68.9496 27.1012L51.9511 36.9199V30.119C51.9511 30.119 51.9511 30.0534 51.9511 30.0097C51.9511 29.9878 51.9948 29.944 52.0167 29.9222L66.0875 21.7874C68.2505 20.5409 70.6974 19.9286 73.1883 20.038C75.6791 20.1473 78.0825 20.9564 80.1145 22.3778C82.1463 23.7992 83.7412 25.7892 84.7026 28.0853C85.664 30.3814 85.9482 32.9181 85.533 35.3673L85.5549 35.3891ZM48.7393 47.5257L42.8619 44.1145C42.8619 44.1145 42.7964 44.0706 42.7746 44.0486C42.7746 44.027 42.7527 43.9831 42.7309 43.9611V27.6917C42.7309 25.1987 43.4519 22.7714 44.7847 20.6502C46.1174 18.5509 48.0183 16.8671 50.2906 15.8175C52.5411 14.7678 55.0537 14.3742 57.5227 14.6804C59.9916 15.0084 62.3295 16.0143 64.2302 17.6106C64.1209 17.6762 63.9463 17.7637 63.815 17.8512L49.8973 25.8985C49.5478 26.0953 49.2637 26.3796 49.067 26.7295C48.8704 27.0794 48.7612 27.473 48.7612 27.8666V47.5038L48.7393 47.5257ZM51.9293 40.6374L59.4889 36.2638L67.0488 40.6374V49.3845L59.4889 53.7579L51.9293 49.3845V40.6374Z" fill="white"/>
</svg>
