
<svg width="115px" height="115px" viewBox="0 0 115 115" version="1.1" xmlns="http://www.w3.org/2000/svg" xmlns:xlink="http://www.w3.org/1999/xlink"><g stroke="none" stroke-width="1" fill="none" fill-rule="evenodd"><g transform="translate(2, 12)" fill-rule="nonzero"><g transform="translate(57.6564, 37.6315)" fill="#265787"><path d="M0.0288429588,13.054482 C0.295260959,9.32463 2.16018696,6.127614 4.82436696,3.729852 C7.48854696,1.33209 11.218399,0 14.948251,0 C18.944521,0 22.407955,1.33209 25.072135,3.729852 C27.736315,6.127614 29.601241,9.32463 29.867659,13.054482 C30.134077,16.784334 28.535569,20.247768 25.871389,22.911948 C23.207209,25.576128 19.210939,27.174636 14.948251,27.174636 C10.685563,27.174636 6.68929296,25.576128 4.02511296,22.911948 C1.36093296,20.514186 -0.237575041,16.784334 0.0288429588,13.054482 Z"></path></g><g fill="#EA7600"><path d="M33.9740297,58.1457285 C33.9740297,59.4778185 34.5068657,62.4084165 35.0397017,64.5397605 C36.3717917,69.0688665 39.0359717,73.5979725 42.4994057,77.3278245 C45.9628397,81.3240945 50.2255277,84.2546925 55.2874697,86.6524545 C60.6158297,89.0502165 66.2106077,90.1158885 72.0718037,90.1158885 C77.9329997,90.1158885 83.7941957,88.7837985 88.8561377,86.6524545 C93.9180797,84.5211105 98.1807677,81.3240945 101.644202,77.3278245 C105.107636,73.5979725 107.505398,69.3352845 109.103906,64.5397605 C109.90316,62.1419985 110.169578,59.7442365 110.435996,57.3464745 C110.702414,54.9487125 110.435996,52.5509505 110.169578,50.1531885 C109.636742,45.6240825 108.038234,41.3613945 105.374054,37.3651245 C103.24271,33.6352725 100.312112,30.7046745 96.8486777,28.0404945 L96.8486777,28.0404945 L62.2143377,1.3986945 C62.2143377,1.3986945 62.2143377,1.3986945 62.2143377,1.3986945 C59.8165757,-0.4662315 56.0867237,-0.4662315 53.6889617,1.3986945 C51.2911997,3.2636205 50.7583637,6.1942185 53.1561257,8.0591445 L53.1561257,8.0591445 L67.5426977,19.7815365 L23.5837277,19.7815365 L23.5837277,19.7815365 C19.8538757,19.7815365 16.3904417,22.1792985 15.8576057,25.1098965 C15.0583517,28.3069125 17.7225317,30.7046745 21.4523837,30.7046745 L21.4523837,30.7046745 L43.8314957,30.7046745 L4.1352137,61.3427445 C4.1352137,61.3427445 4.1352137,61.3427445 3.8687957,61.3427445 C0.138943697,64.2733425 -1.1931463,69.0688665 1.2046157,71.9994645 C3.6023777,75.1964805 8.6643197,75.1964805 12.3941717,71.9994645 L34.2404477,54.1494585 C34.2404477,54.4158765 33.7076117,56.8136385 33.9740297,58.1457285 Z M89.6553917,66.1382685 C85.1262857,70.6673745 78.9986717,73.3315545 72.0718037,73.3315545 C65.4113537,73.3315545 59.0173217,70.6673745 54.4882157,66.1382685 C52.3568717,64.0069245 50.7583637,61.3427445 49.6926917,58.6785645 C48.6270197,56.0143845 48.3606017,53.0837865 48.6270197,50.4196065 C48.8934377,47.7554265 49.6926917,44.8248285 51.0247817,42.4270665 C52.3568717,40.0293045 54.2217977,37.8979605 56.3531417,36.0330345 C60.6158297,32.5696005 66.2106077,30.4382565 72.0718037,30.4382565 C77.9329997,30.4382565 83.5277777,32.3031825 87.7904657,35.7666165 C89.9218097,37.6315425 91.7867357,39.7628865 93.1188257,42.1606485 C94.4509157,44.5584105 95.2501697,47.2225905 95.5165877,50.1531885 C95.7830057,53.0837865 95.5165877,55.7479665 94.4509157,58.4121465 C93.3852437,61.3427445 91.7867357,64.0069245 89.6553917,66.1382685 Z"></path></g></g></g></svg>