<svg viewBox="0 0 1024 1024" version="1.1" xmlns="http://www.w3.org/2000/svg" xmlns:xlink="http://www.w3.org/1999/xlink" width="200" height="200"><path d="M522.6496 938.6496c218.0096 0 394.7008-186.2656 394.7008-416s-176.7424-416-394.7008-416S128 292.9152 128 522.6496s176.6912 416 394.6496 416z" fill="#616161"></path><path d="M597.4016 745.3184c176.7424 0 320-138.6496 320-309.7088 0-171.008-143.2576-309.6576-320-309.6576s-320 138.6496-320 309.6576 143.2576 309.7088 320 309.7088z" fill="#212121"></path><path d="M575.9488 149.3504s106.6496 42.6496 61.8496 80.6912c-22.6816 19.2-51.5072 29.3888-78.336 41.984-31.232 14.592-63.3856 27.2896-91.648 47.7184-21.248 15.4624-41.4208 32.0512-55.8592 54.3744a177.152 177.152 0 0 0-29.2864 87.8592c-1.536 28.7232 3.7376 56.32 15.7184 82.3296 17.0496 37.12 44.6976 64.3072 80.9984 82.944 25.856 13.312 53.248 19.5072 82.2272 18.8416a167.424 167.424 0 0 0 93.0816-29.696c15.872-11.008 28.5696-24.9344 40.4992-40.1408 13.824-17.6128 24.9856-36.5568 34.56-56.5248 11.9296-24.832 20.9408-50.8928 30.7712-76.544 7.5776-19.6608 15.36-39.424 27.0848-57.0368 44.3392-66.1504 87.04-2.1504 87.04-2.1504s-21.3504-85.2992-85.3504-149.2992-213.3504-85.3504-213.3504-85.3504z" fill="#3949AB"></path><path d="M810.6496 426.7008c-9.3696 119.7056-33.024 209.2544-65.28 275.7632a309.248 309.248 0 0 1-314.368 192.3584c-148.8384-12.9024-269.312-134.7584-280.7296-283.648a308.9408 308.9408 0 0 1 138.3936-282.7776c73.728-54.3744 177.152-75.9808 265.984-93.696 71.936-14.3872 107.52-36.0448 123.0336-58.4704 15.2576-22.016 3.4304-52.736-21.6064-62.2592a432.8448 432.8448 0 0 0-186.7776-27.4432c-229.2224 16.8448-409.4464 214.528-405.248 444.3136a437.4016 437.4016 0 0 0 478.72 427.264c195.6864-17.9712 357.888-168.96 389.888-362.8544a434.4832 434.4832 0 0 0-26.7776-237.7216c-13.824-33.536-61.0304-36.608-77.4144-4.1984-12.544 24.832-16.64 58.112-17.8176 73.3696z" fill="#E0E0E0"></path></svg>