<svg width="360px" height="360px" viewBox="0 0 360 360" version="1.1" xmlns="http://www.w3.org/2000/svg" xmlns:xlink="http://www.w3.org/1999/xlink"><g stroke="none" stroke-width="1" fill="none" fill-rule="evenodd"><g transform="translate(4, 80)" fill-rule="nonzero"><path d="M203.476483,62.9856852 L234.969325,62.9856852 L234.969325,95.2965234 L250.920245,95.2965234 C258.282209,95.2965234 265.848671,94.0695295 272.801636,91.615542 C276.482618,90.388548 280.163599,88.7525562 283.435583,86.9120654 C279.141104,80.9815951 276.482618,73.8241309 276.07362,66.4621678 C275.255624,56.6462168 277.096115,43.7627812 283.844581,36.1963189 L287.116564,32.3108385 L291.002045,35.5828221 C301.022495,43.5582822 309.406953,54.805726 310.838446,67.4846625 C322.903886,64.0081799 336.809816,64.8261758 347.443763,70.9611451 L351.738241,73.415133 L349.488753,77.9141104 C340.490797,95.2965234 321.881391,100.817996 303.680982,99.795501 C276.278119,167.689162 216.973415,200 144.989775,200 C107.770961,200 73.6196318,186.09407 54.1922291,153.169734 L53.7832311,152.556237 L50.9202453,146.830266 C44.580777,132.310838 41.9222902,116.359918 43.5582822,100.408998 L43.9672801,95.7055215 L70.9611451,95.7055215 L70.9611451,62.9856852 L102.453988,62.9856852 L102.453988,31.4928426 L165.644172,31.4928426 L165.644172,0 L203.476483,0 L203.476483,62.9856852 Z" fill="#435656"></path><path d="M305.521472,75.0511248 C307.566462,58.6912066 295.296524,45.8077711 287.730061,39.6728016 C278.936605,49.8977504 277.505112,76.4826176 291.411043,87.7300613 C283.640082,94.6830266 267.484663,100.817996 250.920245,100.817996 L48.8752557,100.817996 C47.0347648,116.564417 49.8977506,132.924335 57.2597137,147.443763 L59.5092025,151.738241 C60.9406953,154.192229 62.5766871,156.646217 64.2126789,158.895705 C72.3926381,159.509202 80.1635992,159.509202 87.1165645,159.509203 C100.817996,159.304704 112.06544,157.668712 120.654397,154.601227 C121.881391,154.192229 123.312883,154.805726 123.721881,156.03272 C124.130879,157.259714 123.517382,158.691207 122.290388,159.100204 C121.063395,159.509203 120.0409,159.9182 118.813906,160.122699 C111.247444,162.167689 103.476483,163.394683 95.7055215,163.803681 L94.0695297,163.803681 C90.388548,164.00818 86.5030676,164.00818 82.4130879,164.00818 C77.9141104,164.00818 73.6196318,164.00818 68.9161555,163.599182 L68.7116564,163.599182 C85.4805727,182.617587 111.860941,193.865031 144.785276,193.865031 C214.723926,193.865031 273.824131,162.985685 300,93.4560328 C318.609407,95.2965236 336.400818,90.5930471 344.580777,74.8466258 C331.901841,67.6891615 315.132924,70.1431492 305.521472,75.0511248" fill="#003663"></path><path d="M305.521472,75.0511248 C307.566462,58.6912066 295.296524,45.8077711 287.730061,39.6728016 C278.936605,49.8977504 277.505112,76.4826176 291.411043,87.7300613 C283.640082,94.6830266 267.484663,100.817996 250.920245,100.817996 L60.7361963,100.817996 C59.9182004,127.402863 69.7341514,147.443763 87.1165645,159.713701 C100.817996,159.509202 112.06544,157.873211 120.654397,154.805726 C121.881391,154.396728 123.312883,155.010225 123.721881,156.237219 C124.130879,157.464213 123.517382,158.895705 122.290388,159.304704 C121.063395,159.713702 120.0409,160.122699 118.813906,160.327198 C111.042945,162.576687 103.067485,163.803681 95.0920246,164.212679 L94.8875256,164.00818 C118.609407,176.278119 153.169734,176.07362 192.638037,160.940695 C237.014315,143.96728 278.118609,111.451943 306.952965,74.4376277 L305.521472,75.0511248" fill="#10BCFF"></path><path d="M49.2842535,121.676892 C50.5112475,130.674847 53.1697342,139.468303 57.2597137,147.648262 L59.5092025,151.738241 C60.9406953,154.192229 62.5766871,156.646217 64.2126789,158.895705 C72.3926381,159.509202 80.1635992,159.509202 87.1165645,159.509203 C100.817996,159.304704 112.06544,157.668712 120.654397,154.601227 C121.881391,154.192229 123.312883,154.805726 123.721881,156.03272 C124.130879,157.259714 123.517382,158.691207 122.290388,159.100204 C121.063395,159.509203 120.0409,159.9182 118.813906,160.122699 C111.042945,162.167689 103.067485,163.599182 95.0920246,164.00818 L93.8650307,164.00818 C90.184049,164.212679 86.2985686,164.417178 82.2085889,164.417178 C77.7096113,164.417178 73.2106338,164.417178 68.5071574,164.00818 C85.2760736,183.026585 111.860941,194.274029 144.785276,194.274029 C204.498977,194.274029 256.646217,171.574642 286.707566,121.472393 L49.2842535,121.676892 L49.2842535,121.676892 Z" fill="#003663"></path><path d="M62.5766871,121.676892 C66.2576687,138.03681 74.6421268,150.715746 87.1165645,159.509203 C100.817996,159.304704 112.06544,157.668712 120.654397,154.601227 C121.881391,154.192229 123.312883,154.805726 123.721881,156.03272 C124.130879,157.259714 123.517382,158.691207 122.290388,159.100204 C121.063395,159.509203 120.0409,159.9182 118.813906,160.122699 C111.042945,162.167689 103.067485,163.599182 94.8875256,164.00818 C118.609407,176.278119 152.965235,176.07362 192.433538,160.940695 C216.768916,151.329243 239.672802,138.03681 259.9182,121.676892 L62.5766871,121.676892 Z M76.2781186,68.3026584 L103.680982,68.3026584 L103.680982,95.7055215 L76.2781186,95.7055215 L76.2781186,68.3026584 Z M78.5276074,70.5521473 L80.7770961,70.5521473 L80.7770961,93.2515338 L78.5276074,93.2515338 L78.5276074,70.5521473 Z M82.6175869,70.5521473 L84.8670756,70.5521473 L84.8670756,93.2515338 L82.6175869,93.2515338 L82.6175869,70.5521473 Z M86.7075664,70.5521473 L88.9570553,70.5521473 L88.9570553,93.2515338 L86.7075664,93.2515338 L86.7075664,70.5521473 Z M90.7975461,70.5521473 L93.0470348,70.5521473 L93.0470348,93.2515338 L90.7975461,93.2515338 L90.7975461,70.5521473 Z M94.8875256,70.5521473 L97.1370143,70.5521473 L97.1370143,93.2515338 L94.8875256,93.2515338 L94.8875256,70.5521473 Z M99.1820041,70.5521473 L101.431493,70.5521473 L101.431493,93.2515338 L99.1820041,93.2515338 L99.1820041,70.5521473 Z M107.770961,36.809816 L135.173824,36.809816 L135.173824,64.2126789 L107.770961,64.2126789 L107.770961,36.809816 Z M110.02045,39.0593047 L112.269939,39.0593047 L112.269939,61.7586912 L110.224949,61.7586912 L110.02045,39.0593047 L110.02045,39.0593047 Z M114.110429,39.0593047 L116.359918,39.0593047 L116.359918,61.7586912 L114.110429,61.7586912 L114.110429,39.0593047 Z M118.200409,39.0593047 L120.449898,39.0593047 L120.449898,61.7586912 L118.200409,61.7586912 L118.200409,39.0593047 Z M122.290388,39.0593047 L124.539877,39.0593047 L124.539877,61.7586912 L122.290388,61.7586912 L122.290388,39.0593047 Z M126.584867,39.0593047 L128.834356,39.0593047 L128.834356,61.7586912 L126.584867,61.7586912 L126.584867,39.0593047 Z M130.674847,39.0593047 L132.924335,39.0593047 L132.924335,61.7586912 L130.879346,61.7586912 L130.674847,39.0593047 L130.674847,39.0593047 Z" fill="#0E84CC"></path><path d="M107.770961,68.3026584 L135.173824,68.3026584 L135.173824,95.7055215 L107.770961,95.7055215 L107.770961,68.3026584 Z M110.02045,70.5521473 L112.269939,70.5521473 L112.269939,93.2515338 L110.02045,93.2515338 L110.02045,70.5521473 Z M114.110429,70.5521473 L116.359918,70.5521473 L116.359918,93.2515338 L114.110429,93.2515338 L114.110429,70.5521473 Z M118.200409,70.5521473 L120.449898,70.5521473 L120.449898,93.2515338 L118.200409,93.2515338 L118.200409,70.5521473 Z M122.290388,70.5521473 L124.539877,70.5521473 L124.539877,93.2515338 L122.290388,93.2515338 L122.290388,70.5521473 Z M126.584867,70.5521473 L128.834356,70.5521473 L128.834356,93.2515338 L126.584867,93.2515338 L126.584867,70.5521473 Z M130.674847,70.5521473 L132.924335,70.5521473 L132.924335,93.2515338 L130.879346,93.2515338 L130.674847,70.5521473 Z" fill="#10BCFF"></path><path d="M139.263804,68.3026584 L166.666667,68.3026584 L166.666667,95.7055215 L139.263804,95.7055215 L139.263804,68.3026584 Z M141.513292,70.5521473 L143.762781,70.5521473 L143.762781,93.2515338 L141.513292,93.2515338 L141.513292,70.5521473 Z M145.603272,70.5521473 L147.852761,70.5521473 L147.852761,93.2515338 L145.603272,93.2515338 L145.603272,70.5521473 Z M149.693252,70.5521473 L151.94274,70.5521473 L151.94274,93.2515338 L149.693252,93.2515338 L149.693252,70.5521473 Z M153.98773,70.5521473 L156.237219,70.5521473 L156.237219,93.2515338 L153.98773,93.2515338 L153.98773,70.5521473 Z M158.07771,70.5521473 L160.327198,70.5521473 L160.327198,93.2515338 L158.07771,93.2515338 L158.07771,70.5521473 Z M162.167689,70.5521473 L164.417178,70.5521473 L164.417178,93.2515338 L162.167689,93.2515338 L162.167689,70.5521473 Z" fill="#0E84CC"></path><path d="M139.263804,36.809816 L166.666667,36.809816 L166.666667,64.2126789 L139.263804,64.2126789 L139.263804,36.809816 Z M141.513292,39.0593047 L143.762781,39.0593047 L143.762781,61.7586912 L141.513292,61.7586912 L141.513292,39.0593047 Z M145.603272,39.0593047 L147.852761,39.0593047 L147.852761,61.7586912 L145.603272,61.7586912 L145.603272,39.0593047 Z M149.693252,39.0593047 L151.94274,39.0593047 L151.94274,61.7586912 L149.693252,61.7586912 L149.693252,39.0593047 Z M153.98773,39.0593047 L156.237219,39.0593047 L156.237219,61.7586912 L153.98773,61.7586912 L153.98773,39.0593047 Z M158.07771,39.0593047 L160.327198,39.0593047 L160.327198,61.7586912 L158.07771,61.7586912 L158.07771,39.0593047 Z M162.167689,39.0593047 L164.417178,39.0593047 L164.417178,61.7586912 L162.167689,61.7586912 L162.167689,39.0593047 Z M170.756646,68.3026584 L198.159509,68.3026584 L198.159509,95.7055215 L170.756646,95.7055215 L170.756646,68.3026584 L170.756646,68.3026584 Z M173.006135,70.5521473 L175.255624,70.5521473 L175.255624,93.2515338 L173.006135,93.2515338 L173.006135,70.5521473 Z M177.096114,70.5521473 L179.345603,70.5521473 L179.345603,93.2515338 L177.096114,93.2515338 L177.096114,70.5521473 Z M181.390593,70.5521473 L183.640082,70.5521473 L183.640082,93.2515338 L181.390593,93.2515338 L181.390593,70.5521473 Z M185.480573,70.5521473 L187.730061,70.5521473 L187.730061,93.2515338 L185.480573,93.2515338 L185.480573,70.5521473 Z M189.570552,70.5521473 L191.820041,70.5521473 L191.820041,93.2515338 L189.570552,93.2515338 L189.570552,70.5521473 Z M193.660532,70.5521473 L195.705521,70.5521473 L195.705521,93.2515338 L193.456033,93.2515338 L193.660532,70.5521473 Z" fill="#10BCFF"></path><path d="M170.756646,36.809816 L198.159509,36.809816 L198.159509,64.2126789 L170.756646,64.2126789 L170.756646,36.809816 Z M173.006135,39.0593047 L175.255624,39.0593047 L175.255624,61.7586912 L173.006135,61.7586912 L173.006135,39.0593047 Z M177.096114,39.0593047 L179.345603,39.0593047 L179.345603,61.7586912 L177.096114,61.7586912 L177.096114,39.0593047 Z M181.390593,39.0593047 L183.640082,39.0593047 L183.640082,61.7586912 L181.390593,61.7586912 L181.390593,39.0593047 Z M185.480573,39.0593047 L187.730061,39.0593047 L187.730061,61.7586912 L185.480573,61.7586912 L185.480573,39.0593047 Z M189.570552,39.0593047 L191.820041,39.0593047 L191.820041,61.7586912 L189.570552,61.7586912 L189.570552,39.0593047 Z M193.660532,39.0593047 L195.705521,39.0593047 L195.705521,61.7586912 L193.456033,61.7586912 L193.660532,39.0593047 L193.660532,39.0593047 Z" fill="#0E84CC"></path><path d="M170.756646,5.31697344 L198.159509,5.31697344 L198.159509,32.7198363 L170.756646,32.7198363 L170.756646,5.31697344 Z M173.006135,7.56646211 L175.255624,7.56646211 L175.255624,30.4703477 L173.006135,30.4703477 L173.006135,7.56646211 Z M177.096114,7.56646211 L179.345603,7.56646211 L179.345603,30.4703477 L177.096114,30.4703477 L177.096114,7.56646211 Z M181.390593,7.56646211 L183.640082,7.56646211 L183.640082,30.4703477 L181.390593,30.4703477 L181.390593,7.56646211 Z M185.480573,7.56646211 L187.730061,7.56646211 L187.730061,30.4703477 L185.480573,30.4703477 L185.480573,7.56646211 Z M189.570552,7.56646211 L191.820041,7.56646211 L191.820041,30.4703477 L189.570552,30.4703477 L189.570552,7.56646211 Z M193.660532,7.56646211 L195.705521,7.56646211 L195.705521,30.4703477 L193.456033,30.4703477 L193.660532,7.56646211 Z" fill="#10BCFF"></path><path d="M202.453988,68.3026584 L229.856851,68.3026584 L229.856851,95.7055215 L202.453988,95.7055215 L202.453988,68.3026584 Z M204.703477,70.5521473 L206.952965,70.5521473 L206.952965,93.2515338 L204.703477,93.2515338 L204.703477,70.5521473 Z M208.793456,70.5521473 L211.042945,70.5521473 L211.042945,93.2515338 L208.793456,93.2515338 L208.793456,70.5521473 Z M212.883436,70.5521473 L215.132924,70.5521473 L215.132924,93.2515338 L212.883436,93.2515338 L212.883436,70.5521473 Z M216.973415,70.5521473 L219.222904,70.5521473 L219.222904,93.2515338 L216.973415,93.2515338 L216.973415,70.5521473 Z M221.063395,70.5521473 L223.312883,70.5521473 L223.312883,93.2515338 L221.063395,93.2515338 L221.063395,70.5521473 Z M225.153374,70.5521473 L227.402863,70.5521473 L227.402863,93.2515338 L225.153374,93.2515338 L225.153374,70.5521473 Z" fill="#0E84CC"></path><path d="M133.333333,139.877301 C137.423313,139.877301 140.899796,143.149284 140.899796,147.239264 C140.899796,151.329244 137.627812,154.805726 133.537832,154.805726 L133.333333,154.805726 C129.243354,154.805726 125.766871,151.329243 125.766871,147.239264 C125.766871,143.353783 129.243354,139.877301 133.333333,139.877301" fill="#D3ECEC"></path><path d="M133.333333,141.92229 C133.94683,141.92229 134.764826,142.126789 135.378323,142.331288 C134.560327,142.740286 134.151329,143.762781 134.355828,144.580777 C134.560327,145.603272 135.173824,146.216769 136.196319,146.421268 C137.218814,146.625767 138.03681,146.01227 138.445808,145.194274 C139.263804,147.443763 138.650307,149.897751 136.809816,151.329243 C134.969325,152.760736 132.310838,152.965235 130.470348,151.738241 C128.425358,150.511247 127.607362,148.05726 128.220859,145.603272 C128.834356,143.558282 131.083845,142.126789 133.333333,141.92229 M0,124.335378 L350.715746,124.335378 C343.149284,122.494887 326.584867,119.836401 329.243354,109.815951 C315.337423,125.97137 281.799591,121.063395 273.415133,113.087935 C264.00818,126.789366 209.202454,121.472393 205.316973,110.838446 C193.456033,124.539877 157.055215,124.539877 145.194274,110.838446 C141.308793,121.472393 86.5030674,126.789366 77.0961145,113.087935 C68.7116564,121.063395 35.173824,125.766871 21.2678937,109.815951 C24.1308795,119.631902 7.5664623,122.290389 0,124.335378" fill="#435656"></path><path d="M153.374233,194.274029 C134.764826,185.480573 124.335378,173.415133 118.813906,160.327198 C110.633947,162.576687 102.249489,163.803681 93.8650307,164.00818 C90.184049,164.212679 86.2985686,164.417178 82.4130879,164.417178 C77.7096113,164.417178 72.8016359,164.212679 67.6891615,164.00818 C84.8670756,181.186094 105.93047,194.274029 144.989775,194.478528 C147.648262,194.478528 150.511247,194.478528 153.374233,194.274029" fill="#BDD9D7"></path><path d="M125.766871,172.392638 C123.108384,168.507157 120.654397,164.621677 118.813906,160.327198 C110.633947,162.576687 102.249489,163.803681 93.8650307,164.00818 C100.408998,167.689162 110.02045,170.961145 125.766871,172.392638" fill="#D3ECEC"></path></g></g></svg>