
<svg width="390px" height="390px" viewBox="0 0 390 390" version="1.1" xmlns="http://www.w3.org/2000/svg" xmlns:xlink="http://www.w3.org/1999/xlink"><defs><linearGradient x1="50%" y1="0%" x2="50%" y2="97.5027902%" id="l1"><stop stop-color="#52D057" offset="0%"></stop><stop stop-color="#5686DC" offset="100%"></stop></linearGradient><path d="M38.9769234,202.240385 L116.931281,202.240385 L155.908504,269.66682 L77.9553564,269.66682 L38.9768338,202.240385 L0,134.826145 L38.9772235,67.4126832 L77.9544469,134.826145 L116.93137,67.4134617 L194.886418,67.4134617 L194.887027,67.4134617 L155.908504,0 L233.862952,0 L272.839875,67.4129427 L272.840414,67.4129427 L311.817787,134.826145 L233.863491,134.826145 L194.886418,67.4134617 L155.908504,0 L140.317615,26.9653847 L155.907985,0 L77.9548368,0 L38.976314,67.4134617 L77.954372,134.826275 L70.1590021,148.309097 L77.9544469,134.826404 L116.93167,202.239866 L38.9778236,202.239866 L38.9769234,202.240385 Z M176.602297,233.869443 L194.887027,202.239866 L233.862952,269.666302 L155.909194,269.666302 L116.93167,202.239866 L194.886117,202.239866 L176.602297,233.869443 Z" id="p1"></path><linearGradient x1="50%" y1="0%" x2="50%" y2="100%" id="l2"><stop stop-color="#33B64D" offset="0%"></stop><stop stop-color="#30A7D8" offset="100%"></stop></linearGradient><linearGradient x1="50%" y1="0%" x2="50%" y2="100%" id="l3"><stop stop-color="#33B36C" offset="0%"></stop><stop stop-color="#208B5D" offset="100%"></stop></linearGradient></defs><g stroke="none" stroke-width="1" fill="none" fill-rule="evenodd"><g transform="translate(1, 27)"><polygon stroke="#CECECE" points="145.318133 251.90202 145.366556 251.982659 145.26971 251.982659 96.8948962 168.262615 96.846473 168.181974 96.8948962 168.101336 96.9433195 168.181974"></polygon><polygon stroke="#F2F2F2" points="339.059502 84.3651621 339.011079 84.4458017 290.636266 168.181974 290.539418 168.181974 242.164605 84.4458017 242.116182 84.3651621 145.366556 84.3651621 193.789792 0.564477283 290.636266 0.564477283"></polygon><polyline stroke="#F2F2F2" points="241.970913 252.418112 290.135892 335.783344 193.789792 335.783344"></polyline><polygon stroke="#F2F2F2" points="145.366556 251.418343 96.9433195 335.219027 48.5200829 251.418343 48.4232366 251.418343 0.048423236 167.698299 0.096846476 167.617658 96.9433195 167.617658 145.318133 251.337704"></polygon><polygon stroke="#F2F2F2" points="290.539418 7.10542736e-15 242.164605 83.7200452 242.116182 83.8006848 145.26971 83.8006848 96.8948962 0.080639612 96.9433195 7.10542736e-15"></polygon><polygon stroke="#F2F2F2" points="387.385892 167.617498 387.192199 167.972311 386.982365 167.617498 290.539418 167.617498 242.164605 83.8813244 242.116182 83.8006848 338.962656 83.8006848 339.011079 83.8813244"></polygon><polygon stroke="#F2F2F2" points="242.213028 251.418343 241.970913 251.853798 193.789792 335.219027 145.366556 251.418343 241.712656 251.418343 241.92249 251.063528 241.970913 250.982889 242.164605 251.337704"></polygon><polygon stroke="#F2F2F2" points="193.789792 335.218867 96.9433195 335.218867 48.5200829 251.418183 96.8948962 167.698137 96.9433195 167.617498 145.318133 251.337542 145.366556 251.418183"></polygon><polygon stroke="#F2F2F2" points="242.213028 83.8006848 242.164605 83.8813244 242.116182 83.8006848 145.26971 83.8006848 96.8948962 167.536858 48.5200829 83.8006848 96.8948962 0.080639612 96.9433195 0 193.789792 0 242.164605 83.7200452"></polygon><polygon stroke="#F2F2F2" points="145.318133 251.337542 145.26971 251.418183 48.4232366 251.418183 0.048423236 167.698137 -1.42108547e-14 167.617498 48.4232366 83.8006848 145.26971 83.8006848 96.8948962 167.536858 96.9433195 167.617498"></polygon><g transform="translate(37.9637, 32.7092)"><g><g fill="url(#l1)" fill-rule="nonzero"><path d="M38.9769234,202.240385 L116.931281,202.240385 L155.908504,269.66682 L77.9553564,269.66682 L38.9768338,202.240385 L0,134.826145 L38.9772235,67.4126832 L77.9544469,134.826145 L116.93137,67.4134617 L194.886418,67.4134617 L194.887027,67.4134617 L155.908504,0 L233.862952,0 L272.839875,67.4129427 L272.840414,67.4129427 L311.817787,134.826145 L233.863491,134.826145 L194.886418,67.4134617 L155.908504,0 L140.317615,26.9653847 L155.907985,0 L77.9548368,0 L38.976314,67.4134617 L77.954372,134.826275 L70.1590021,148.309097 L77.9544469,134.826404 L116.93167,202.239866 L38.9778236,202.239866 L38.9769234,202.240385 Z M176.602297,233.869443 L194.887027,202.239866 L233.862952,269.666302 L155.909194,269.666302 L116.93167,202.239866 L194.886117,202.239866 L176.602297,233.869443 Z"></path></g><g><mask id="m" fill="white"><use xlink:href="#p1"></use></mask><g id="path-3"></g><path d="M-132.378782,85.1436367 C-119.656583,91.3704845 -41.2948766,222.069605 63.3476489,185.031009 C167.990175,147.992412 151.713007,-90.9312769 369.632864,18.3741945 C587.552722,127.679666 172.7791,413.939189 172.7791,413.939189 L-195.779569,274.613028 C-195.779569,274.613028 -145.10098,78.916789 -132.378782,85.1436367 Z" fill="url(#l2)" fill-rule="nonzero" mask="url(#m)"></path></g></g><polygon fill="url(#l3)" fill-rule="nonzero" points="137.631455 174.077477 118.142844 140.369449 137.631455 106.661421 176.60868 106.661421 196.097291 140.369449 176.60868 174.077477"></polygon></g></g></g></svg>