<svg viewBox="0 0 1024 1024" version="1.1" xmlns="http://www.w3.org/2000/svg" xmlns:xlink="http://www.w3.org/1999/xlink" width="200" height="200"><path d="M932.78 512c0 232.39-188.39 420.78-420.78 420.78S91.22 744.39 91.22 512 279.61 91.22 512 91.22 932.78 279.61 932.78 512" fill="#25AF41"></path><path d="M259.54 609.85A142.51 142.51 0 0 1 401.85 467.4a32.53 32.53 0 0 1 0 65.05A77.56 77.56 0 1 0 479.39 610V403.48h0.44A142.51 142.51 0 1 1 622 556.3a32.52 32.52 0 0 1 0-65 77.5 77.5 0 1 0-77.6-77.56v207h-0.4a142.44 142.44 0 0 1-284.5-10.8" fill="#FFFFFF"></path></svg>