<svg width="200px" height="200px" viewBox="0 0 200 200" version="1.1" xmlns="http://www.w3.org/2000/svg" xmlns:xlink="http://www.w3.org/1999/xlink"><g stroke="none" stroke-width="1" fill="none" fill-rule="evenodd"><g fill-rule="nonzero"><polygon fill-opacity="0.01" fill="#FFFFFF" points="0 0 200 0 200 200 0 200"></polygon><path d="M104.4,191.333333 L99.525,189.666667 C99.525,189.666667 100.116667,164.783333 91.1875,163 C85.2375,156.095833 92.1458334,-129.858333 113.570833,162.045833 C113.570833,162.045833 106.1875,165.745833 104.875,172.045833 C103.445833,178.2375 104.4,191.333333 104.4,191.333333 Z" fill="#FFFFFF"></path><path d="M104.4,191.333333 L99.525,189.666667 C99.525,189.666667 100.116667,164.783333 91.1875,163 C85.2375,156.095833 92.1458334,-129.858333 113.570833,162.045833 C113.570833,162.045833 106.1875,165.745833 104.875,172.045833 C103.445833,178.2375 104.4,191.333333 104.4,191.333333 Z" fill="#A6A385"></path><path d="M107.020833,167.2875 C107.020833,167.2875 149.758333,139.1875 139.7625,80.7375 C130.116667,38.2375 107.379167,24.3083334 104.8875,18.9541666 C102.1375,15.1333332 99.5208334,8.4791666 99.5208334,8.4791666 L101.308333,126.6875 C101.308333,126.808333 97.6083334,162.883333 107.020833,167.2875" fill="#FFFFFF"></path><path d="M107.020833,167.2875 C107.020833,167.2875 149.758333,139.1875 139.7625,80.7375 C130.116667,38.2375 107.379167,24.3083334 104.8875,18.9541666 C102.1375,15.1333332 99.5208334,8.4791666 99.5208334,8.4791666 L101.308333,126.6875 C101.308333,126.808333 97.6083334,162.883333 107.020833,167.2875" fill="#499D4A"></path><path d="M97.0208334,168.833333 C97.0208334,168.833333 56.9,141.45 59.2833334,93.2375 C61.5583334,45.025 89.8791666,21.3333334 95.3541666,17.05 C98.925,13.2375 99.05,11.8083334 99.2833334,8 C101.783333,13.3583334 101.308333,88.1166666 101.658333,96.925 C102.733333,130.854167 99.7583334,162.404167 97.0208334,168.833333 L97.0208334,168.833333 Z" fill="#FFFFFF"></path><path d="M97.0208334,168.833333 C97.0208334,168.833333 56.9,141.45 59.2833334,93.2375 C61.5583334,45.025 89.8791666,21.3333334 95.3541666,17.05 C98.925,13.2375 99.05,11.8083334 99.2833334,8 C101.783333,13.3583334 101.308333,88.1166666 101.658333,96.925 C102.733333,130.854167 99.7583334,162.404167 97.0208334,168.833333 L97.0208334,168.833333 Z" fill="#58AA50"></path></g></g></svg>