
<svg width="375px" height="375px" viewBox="0 0 375 375" version="1.1" xmlns="http://www.w3.org/2000/svg" xmlns:xlink="http://www.w3.org/1999/xlink"><g stroke="none" stroke-width="1" fill="none" fill-rule="evenodd"><g transform="translate(4, 89)" fill-rule="nonzero"><path d="M146.666667,137.5 L146.666667,174.166667 L124.666667,174.166667 C117.333333,174.166667 117.333333,170.5 117.333333,168.666667 L117.333333,137.5 L102.666667,137.5 L102.666667,169.583333 C102.666667,176 110.916667,181.5 123.75,181.5 L146.666667,181.5 L146.666667,182.416667 C146.666667,183.333333 147.583333,187.916667 139.333333,189.75 L102.666667,189.75 L102.666667,197.083333 L141.166667,197.083333 C147.583333,197.083333 161.333333,195.25 161.333333,184.25 L161.333333,138.416667 L146.666667,138.416667 L146.666667,137.5 Z M88.9166666,116.416667 C78.8333332,112.75 71.5,115.5 67.8333334,122.833333 L47.6666666,170.5 L27.5,122.833333 C24.75,117.333333 20.1666666,114.583333 13.75,114.583333 C11,115.5 9.1666666,115.5 6.4166666,116.416667 C1.8333332,117.333333 0,120.083333 0,125.583333 L0,180.583333 L14.6666666,180.583333 L14.6666666,126.5 L34.8333334,172.333333 C37.5833334,177.833333 40.3333334,180.583333 47.6666666,180.583333 C55,180.583333 57.75,178.75 60.5,172.333333 L80.6666666,127.416667 L80.6666666,180.583333 L95.3333334,180.583333 L95.3333334,125.583333 C95.3333334,121 93.5,118.25 88.9166666,116.416667 L88.9166666,116.416667 Z" fill="#017590"></path><path d="M168.666667,130.166667 L168.666667,139.333333 C168.666667,145.75 174.166667,151.25 187,152.166667 L206.25,152.166667 C214.5,152.166667 213.583333,158.583333 213.583333,159.5 L213.583333,166.833333 C213.583333,170.5 210.833333,174.166667 207.166667,174.166667 L169.583333,174.166667 L169.583333,181.5 L206.25,181.5 C210.833333,181.5 215.416667,180.583333 219.083333,178.75 C225.5,176 227.333333,172.333333 227.333333,166.833333 L227.333333,156.75 C227.333333,145.75 213.583333,144.833333 205.333333,144.833333 L190.666667,144.833333 C185.166667,144.833333 184.25,141.166667 183.333333,137.5 L183.333333,130.166667 C184.25,127.416667 185.166667,122.833333 190.666667,122.833333 L227.333333,122.833333 L227.333333,115.5 L192.5,115.5 C187,115.5 168.666667,116.416667 168.666667,130.166667 Z M300.666667,166.833333 L300.666667,130.166667 C300.666667,122.833333 295.166667,117.333333 285.083333,115.5 L249.333333,115.5 C238.333333,117.333333 234.666667,122.833333 234.666667,130.166667 L234.666667,166.833333 C234.666667,174.166667 238.333333,178.75 246.583333,180.583333 C249.333333,181.5 251.166667,181.5 253.916667,181.5 L279.583333,181.5 L287.833333,188.833333 L304.333333,188.833333 L293.333333,178.75 C298.833333,176 300.666667,172.333333 300.666667,166.833333 L300.666667,166.833333 Z M285.083333,170.5 L281.416667,166.833333 L264.916667,166.833333 L273.166667,174.166667 L258.5,174.166667 C253.916667,174.166667 250.25,171.416667 250.25,166.833333 L250.25,131.083333 C250.25,126.5 253.916667,122.833333 258.5,122.833333 L277.75,122.833333 C282.333333,122.833333 286,125.583333 286.916667,130.166667 L286.916667,166.833333 C286,167.75 286,169.583333 285.083333,170.5 L285.083333,170.5 Z M332.75,174.166667 C325.416667,174.166667 322.666667,171.416667 322.666667,166.833333 L322.666667,115.5 L308,115.5 L308,166.833333 C308,176 313.5,180.583333 326.333333,181.5 L366.666667,181.5 L366.666667,174.166667 L332.75,174.166667 Z" fill="#F49214"></path><path d="M253,22 C251.166667,22 250.25,22 249.333333,22.9166666 C250.25,24.75 251.166667,25.6666666 252.083333,26.5833332 L253.916667,31.1666666 C255.75,30.25 255.75,28.4166666 255.75,26.5833332 C254.833333,25.6666666 254.833333,25.6666666 254.833333,24.75 C254.833333,23.8333334 253.916667,22.9166666 253,22 L253,22 Z" fill="#017590"></path><path d="M319.916667,88 C321.75,89.8333334 327.25,90.75 330,92.5833332 C331.833333,93.5 334.583333,94.4166666 336.416667,95.3333332 C340.083333,97.1666666 342.833333,99.9166666 346.5,101.75 C349.25,104.5 352.916667,105.416667 352.916667,107.25 C344.666667,107.25 339.166667,108.166667 333.666667,110 C331.833333,110.916667 330,110.916667 330,112.75 C330,114.583333 330.916667,114.583333 331.833333,115.5 C332.75,117.333333 334.583333,120.083333 337.333333,121.916667 C339.166667,123.75 341,124.666667 343.75,126.5 C345.583333,127.416667 352,130.166667 355.666667,132.916667 C359.333333,135.666667 360.25,135.666667 362.083333,137.5 L364.833333,140.25 C363.916667,139.333333 363.916667,138.416667 363,137.5 L360.25,134.75 C357.5,131.083333 353.833333,127.416667 350.166667,124.666667 C347.416667,122.833333 340.083333,119.166667 339.166667,116.416667 C341,116.416667 343.75,115.5 345.583333,114.583333 C349.25,113.666667 352,113.666667 355.666667,112.75 L360.25,111.833333 L360.25,110.916667 C358.416667,109.083333 357.5,107.25 355.666667,105.416667 C350.166667,100.833333 345.583333,97.1666666 339.166667,93.5 C336.416667,91.6666666 331.833333,89.8333334 329.083333,88.9166666 C325.416667,87.0833332 326.333333,88 325.416667,87.0833332 C323.583333,84.3333332 322.666667,82.5 321.75,79.75 C319,74.25 316.25,68.75 313.5,62.3333332 C311.666667,58.6666666 310.75,55 308.916667,51.3333332 C298.833333,34.8333332 287.833333,24.7499998 270.416667,14.6666666 C266.75,12.8333332 262.166667,11.9166666 257.583333,11 L250.25,10.0833332 C248.416667,9.1666666 247.5,8.2499998 245.666667,6.4166666 C242,4.5833332 235.583333,0 229.166667,0 C225.5,0 222.75,1.8333334 220.916667,5.5 C218.166667,11.9166666 224.583333,18.3333334 227.333333,21.0833332 C229.166667,23.8333332 231,25.6666666 231.916667,28.4166666 C232.833333,30.25 232.833333,32.0833332 233.75,33.9166666 C235.583333,38.5 237.416667,43.0833332 240.166667,47.6666666 C241.083333,49.5 242,52.25 243.833333,54.0833332 C244.75,55 246.583333,55.9166666 246.583333,57.75 C246.583333,59.5833334 244.75,62.3333334 243.833333,65.0833332 C240.166667,76.0833332 242,89.8333332 246.583333,98.0833332 C248.416667,100.833333 252.083333,106.333333 256.666667,103.583333 C262.166667,101.75 260.333333,96.2499998 261.25,91.6666666 C261.25,90.75 261.25,89.8333332 262.166667,88.9166666 L265.833333,97.1666666 C269.5,102.666667 274.083333,106.333333 278.666667,110 C281.416667,111.833333 282.333333,114.583333 286,115.5 C285.083333,114.583333 284.166667,114.583333 283.25,113.666667 L277.75,108.166667 C273.166667,102.666667 269.5,96.25 266.75,89.8333332 C264.916667,87.0833332 264,83.4166666 262.166667,80.6666666 C260.333333,77.9166666 261.25,77.9166666 260.333333,77 C258.5,79.75 256.666667,80.6666666 255.75,83.4166666 C254.833333,86.1666666 253.916667,92.5833332 253,98.0833332 L252.083333,98.0833332 C249.333333,97.1666666 247.5,94.4166666 246.583333,91.6666666 C243.833333,83.4166666 242.916667,74.25 245.666667,65.0833332 C246.583333,63.2499998 249.333333,56.8333332 248.416667,55 C247.5,53.1666666 245.666667,52.25 244.75,50.4166666 C242.916667,48.5833332 242,46.75 241.083333,44 C238.333333,38.5 236.5,32.0833334 233.75,26.5833332 C231.916667,23.8333332 231,21.0833332 229.166667,19.25 C227.333333,16.5 225.5,14.6666666 223.666667,11.9166666 C221.833333,9.1666666 222.75,9.1666666 222.75,8.25 C222.75,7.3333334 223.666667,7.3333334 223.666667,7.3333332 C224.583333,6.4166666 228.25,7.3333332 230.083333,8.25 C233.75,9.1666666 236.5,11 240.166667,12.8333332 C242,13.7499998 242.916667,15.5833332 244.75,16.5 L246.583333,16.5 C249.333333,17.4166666 253,16.5 256.666667,17.4166666 C261.25,19.25 266.75,21.0833332 270.416667,23.8333332 C283.25,32.0833332 294.25,43.0833332 301.583333,56.8333332 C302.5,59.5833332 303.416667,61.4166666 304.333333,63.25 C305.25,65.0833334 308.916667,73.3333334 310.75,77.9166666 C314.416667,79.75 317.166667,84.3333332 319.916667,88 L319.916667,88 Z" fill="#017590"></path></g></g></svg>