<svg width="110px" height="110px" viewBox="0 0 110 110" version="1.1" xmlns="http://www.w3.org/2000/svg" xmlns:xlink="http://www.w3.org/1999/xlink"><g stroke="none" stroke-width="1" fill="none" fill-rule="evenodd"><g transform="translate(9, 10)" fill-rule="nonzero"><path d="M16.3010152,0 L75.9010152,0 C84.9010152,0 92.2010152,7.3 92.2010152,16.3 L92.2010152,73.6 C92.2010152,82.6 84.9010152,89.9 75.9010152,89.9 L16.3010152,89.9 C7.30101525,89.9 0.00101524761,82.6 0.00101524761,73.6 L0.00101524761,16.3 C-0.0989847524,7.3 7.20101525,0 16.3010152,0 L16.3010152,0 Z" fill="#001E36"></path><path d="M20.7010152,63.1 L20.7010152,23.5 C20.7010152,23.2 20.8010152,23.1 21.1010152,23.1 L23.3010152,23.1 C24.2010152,23.1 25.2010152,23.1 26.2010152,23 C27.2010152,23 28.4010152,23 29.5010152,22.9 L33.0010152,22.9 C36.2010152,22.9 38.8010152,23.3 40.9010152,24.1 C42.8010152,24.8 44.6010152,25.8 46.1010152,27.3 C47.3010152,28.5 48.3010152,30 48.9010152,31.7 C49.5010152,33.3 49.8010152,35 49.8010152,36.7 C49.8010152,40 49.0010152,42.7 47.5010152,44.9 C46.0010152,47.1 43.8010152,48.7 41.3010152,49.6 C38.7010152,50.6 35.8010152,50.9 32.6010152,50.9 C31.7010152,50.9 31.1010152,50.9 30.7010152,50.9 C30.3010152,50.9 29.8010152,50.9 29.0010152,50.9 L29.0010152,63.2 C29.0010152,63.5 28.8010152,63.7 28.6010152,63.7 L21.1010152,63.7 C20.9010152,63.6 20.7010152,63.5 20.7010152,63.1 L20.7010152,63.1 Z M29.1010152,30.5 L29.1010152,43.4 C29.6010152,43.4 30.1010152,43.5 30.6010152,43.5 L32.6010152,43.5 C34.1010152,43.5 35.6010152,43.3 37.0010152,42.8 C38.2010152,42.5 39.3010152,41.7 40.2010152,40.8 C41.0010152,39.8 41.4010152,38.5 41.4010152,36.8 C41.4010152,35.6 41.1010152,34.4 40.5010152,33.4 C39.8010152,32.4 38.9010152,31.6 37.8010152,31.2 C36.4010152,30.6 34.8010152,30.4 33.3010152,30.4 C32.3010152,30.4 31.4010152,30.4 30.7010152,30.4 C29.9010152,30.5 29.4010152,30.5 29.1010152,30.5 Z M73.8010152,41.1 C72.6010152,40.5 71.4010152,40.1 70.1010152,39.8 C68.7010152,39.5 67.3010152,39.3 65.8010152,39.3 C65.0010152,39.3 64.2010152,39.4 63.5010152,39.6 C63.0010152,39.7 62.6010152,40 62.3010152,40.4 C62.1010152,40.7 62.0010152,41.1 62.0010152,41.4 C62.0010152,41.7 62.2010152,42.1 62.4010152,42.4 C62.7010152,42.8 63.2010152,43.2 63.7010152,43.4 C64.6010152,43.9 65.5010152,44.3 66.4010152,44.7 C68.5010152,45.4 70.5010152,46.4 72.3010152,47.5 C73.6010152,48.3 74.6010152,49.4 75.3010152,50.7 C75.9010152,51.9 76.2010152,53.3 76.2010152,54.7 C76.2010152,56.5 75.7010152,58.3 74.7010152,59.8 C73.6010152,61.3 72.1010152,62.5 70.4010152,63.2 C68.5010152,64 66.2010152,64.4 63.4010152,64.4 C61.6010152,64.4 59.9010152,64.2 58.2010152,63.9 C56.9010152,63.7 55.5010152,63.2 54.3010152,62.7 C54.0010152,62.5 53.8010152,62.3 53.9010152,62 L53.9010152,55.3 C53.9010152,55.2 53.9010152,55 54.1010152,55 C54.2010152,54.9 54.3010152,55 54.4010152,55 C55.9010152,55.9 57.5010152,56.5 59.2010152,56.9 C60.7010152,57.3 62.2010152,57.5 63.7010152,57.5 C65.2010152,57.5 66.2010152,57.3 66.9010152,57 C67.5010152,56.7 67.9010152,56.1 67.9010152,55.4 C67.9010152,54.9 67.6010152,54.4 67.0010152,53.9 C66.4010152,53.4 65.1010152,52.8 63.2010152,52.1 C61.2010152,51.4 59.4010152,50.5 57.7010152,49.3 C56.5010152,48.5 55.5010152,47.3 54.8010152,46 C54.2010152,44.8 53.9010152,43.4 53.9010152,42.1 C53.9010152,40.4 54.4010152,38.9 55.2010152,37.4 C56.2010152,35.9 57.6010152,34.6 59.2010152,33.9 C61.0010152,33 63.3010152,32.6 66.0010152,32.6 C67.6010152,32.6 69.2010152,32.7 70.8010152,32.9 C72.0010152,33.1 73.1010152,33.4 74.1010152,33.8 C74.3010152,33.8 74.4010152,34 74.5010152,34.1 C74.5010152,34.3 74.6010152,34.4 74.6010152,34.6 L74.6010152,40.9 C74.6010152,41.1 74.5010152,41.2 74.4010152,41.3 C74.1010152,41.2 73.9010152,41.2 73.8010152,41.1 L73.8010152,41.1 Z" fill="#31A8FF"></path></g></g></svg>