<svg viewBox="0 0 1024 1024" version="1.1" xmlns="http://www.w3.org/2000/svg" xmlns:xlink="http://www.w3.org/1999/xlink" width="200" height="200"><path d="M894.208 431.616H642.133333a41.045333 41.045333 0 0 1-35.541333-41.088v-264.533333A40.661333 40.661333 0 0 0 565.973333 85.333333h-88.234666c-22.570667 0-40.704 18.346667-40.704 40.704V393.386667c-1.109333 20.181333-17.706667 36.437333-37.717334 38.272H333.312a41.216 41.216 0 0 1-35.712-38.314667V126.037333c0-22.570667-18.346667-40.704-40.661333-40.704H168.661333A40.704 40.704 0 0 0 128 126.037333v771.925334c0 22.570667 18.346667 40.704 40.661333 40.704h725.76c22.570667 0 40.661333-18.346667 40.661334-40.704V472.32a40.832 40.832 0 0 0-40.874667-40.704z m-116.096 291.882667c0 22.613333-18.346667 40.746667-40.704 40.746666h-88.192a40.661333 40.661333 0 0 1-40.704-40.704v-83.242666c0-22.613333 18.346667-40.704 40.704-40.704h88.192c22.613333 0 40.704 18.304 40.704 40.704v83.2z" fill="#FFAD0A"></path></svg>