<svg width="110px" height="110px" viewBox="0 0 110 110" version="1.1" xmlns="http://www.w3.org/2000/svg" xmlns:xlink="http://www.w3.org/1999/xlink"><g stroke="none" stroke-width="1" fill="none" fill-rule="evenodd"><g transform="translate(5, 10)"><polygon fill="#FEEEB7" points="77.7 3 49.7 0 21.7 3 0 32.1 49.7 90 99.4 32.1"></polygon><polygon fill="#EA6C00" points="20.1 32.1 49.7 90 3.55271368e-15 32.1"></polygon><polygon fill="#EA6C00" points="79.3 32.1 49.7 90 99.4 32.1"></polygon><polygon fill="#FDAD00" points="20.1 32.1 79.3 32.1 49.7 90"></polygon><polygon fill="#FDD231" points="49.7 0 21.7 3 20.1 32.1"></polygon><polygon fill="#FDD231" points="49.7 0 77.7 3 79.3 32.1"></polygon><polygon fill="#FDAD00" points="99.4 32.1 77.7 3 79.3 32.1"></polygon><polygon fill="#FDAD00" points="3.55271368e-15 32.1 21.7 3 20.1 32.1"></polygon><polygon fill="#FEEEB7" points="49.7 0 20.1 32.1 79.3 32.1"></polygon></g></g></svg>