<svg viewBox="0 0 1024 1024" version="1.1" xmlns="http://www.w3.org/2000/svg" xmlns:xlink="http://www.w3.org/1999/xlink" width="200" height="200"><path d="M316.0205125 881.23076923c174.44102596 0 287.91794904-91.07692308 287.91794904-228.10256442 0-106.25641057-69.00512789-173.78461538-192.41025673-201.76410193l-79.17948654-23.42564134c-69.49743558-15.38461538-110.07179519-33.84615385-100.51282115-81.02564135 7.95897404-39.26153846 31.71282019-61.41538462 87.05641057-61.41538461 175.79487211 0 240.94358943 61.41538462 240.94358943 61.41538461v-147.69230769S496.41025673 142.76923077 318.89230769 142.76923077C151.50769231 142.76923077 60.71794904 227.69230769 60.71794904 359.09743558c0 106.25641057 62.93333365 168.08205096 190.56410192 197.41538461l13.70256442 3.40512885c19.40512789 5.90769231 45.6205125 13.74358943 78.60512789 23.46666634 65.23076923 15.38461538 82.01025673 31.71282019 82.01025673 80.65641058 0 44.71794904-47.1794875 70.15384615-109.53846154 70.15384615C136.24615385 734.19487211 60.71794904 644.55384615 60.71794904 644.55384615v163.65128174S107.9794875 881.23076923 316.0205125 881.23076923z" fill="#9D39FF"></path><path d="M855.54871827 870.15384615c61.74358943 0 107.75384615-44.0205125 107.75384615-103.63076923 0-60.88205096-44.67692308-103.63076923-107.73333365-103.63076923-61.74358943 0-106.44102596 42.74871827-106.44102596 103.63076923 0 60.88205096 44.67692308 103.63076923 106.42051346 103.63076923z" fill="#E80000"></path></svg>