<svg width="350px" height="350px" viewBox="0 0 350 350" version="1.1" xmlns="http://www.w3.org/2000/svg" xmlns:xlink="http://www.w3.org/1999/xlink"><g stroke="none" stroke-width="1" fill="none" fill-rule="evenodd"><g transform="translate(11, 77)" fill="#38BDF8" fill-rule="nonzero"><path d="M163.636364,0 C120,0 92.7272729,21.8181818 81.8181818,65.4545455 C98.1818182,43.6363637 117.272727,35.4545455 139.090909,40.9090908 C151.539394,44.0181816 160.436364,53.0545453 170.284848,63.0484848 C186.327273,79.3333334 204.89697,98.1818182 245.454546,98.1818182 C289.090909,98.1818182 316.363636,76.3636363 327.272727,32.7272727 C310.909091,54.5454545 291.818182,62.7272727 270,57.2727273 C257.551515,54.1636365 248.654546,45.1272729 238.806061,35.1333334 C222.763636,18.8484848 204.193939,0 163.636364,0 Z M81.8181818,98.1818182 C38.1818182,98.1818182 10.9090908,120 0,163.636364 C16.3636363,141.818182 35.4545455,133.636364 57.2727273,139.090909 C69.7212121,142.206061 78.6181818,151.236364 88.4666666,161.230303 C104.509091,177.515152 123.078788,196.363636 163.636364,196.363636 C207.272727,196.363636 234.545454,174.545454 245.454546,130.909091 C229.090909,152.727273 210,160.909091 188.181818,155.454546 C175.733333,152.345455 166.836364,143.309091 156.987879,133.315152 C140.945454,117.030303 122.375758,98.1818182 81.8181818,98.1818182 Z"></path></g></g></svg>